<svg version="1.1" id="Layer_1" xmlns="http://www.w3.org/2000/svg" xmlns:xlink="http://www.w3.org/1999/xlink" x="0px" y="0px"
	 width="100%" viewBox="0 0 512 512" enable-background="new 0 0 512 512" xml:space="preserve">
<path fill="#000000" opacity="1.000000" stroke="none" 
	d="
M357.000000,1.000000 
	C408.960632,1.000000 460.921265,1.000000 513.000000,1.000000 
	C513.000000,141.354202 513.000000,281.708435 512.531372,422.531860 
	C471.075256,422.962036 430.087860,422.923065 389.065491,422.423889 
	C389.030548,404.453339 389.030548,386.942993 389.030548,368.849854 
	C372.462524,368.849854 356.730957,368.849854 340.999298,368.393372 
	C340.999207,344.725372 340.999207,321.513916 340.999207,297.937927 
	C327.983612,297.937927 315.542786,297.937927 303.057709,297.475647 
	C302.953674,273.673401 302.893921,250.333405 302.987793,226.671783 
	C304.902832,223.269150 306.671051,220.192032 308.424530,217.106567 
	C319.934143,196.854446 331.486359,176.626328 342.925232,156.334335 
	C347.437286,148.330093 351.694214,140.182037 356.529236,132.057098 
	C369.733429,131.638046 382.519165,133.108246 394.971313,128.174820 
	C411.712006,121.542282 425.769897,103.588051 425.961884,84.986778 
	C426.140472,67.686508 426.005676,50.382946 425.990509,33.080845 
	C425.989105,31.478640 425.855225,29.876549 425.768127,27.947332 
	C402.628662,27.947332 379.862885,27.947332 357.054626,27.483696 
	C357.008087,18.346704 357.004028,9.673352 357.000000,1.000000 
z"/>
<path fill="#000000" opacity="1.000000" stroke="none" 
	d="
M1.000000,423.000000 
	C1.000000,282.439880 1.000000,141.879730 1.000000,1.000000 
	C52.687122,1.000000 104.374901,1.000000 156.531067,1.468655 
	C156.968979,10.600419 156.938522,19.263527 156.447678,27.958553 
	C133.419647,27.990469 110.852013,27.990469 88.000221,27.990469 
	C88.000221,46.209888 87.747856,63.831284 88.138451,81.438408 
	C88.273376,87.520340 89.007195,93.958176 91.197235,99.556786 
	C98.035889,117.039062 110.757019,128.274933 129.688660,130.845306 
	C138.973602,132.105927 148.483688,131.708466 157.944260,132.426514 
	C160.111481,136.785385 162.136780,140.829651 164.356476,144.764236 
	C174.533829,162.804459 184.747986,180.823975 194.984879,198.830490 
	C200.339554,208.249252 205.768417,217.625839 211.090790,227.482117 
	C210.986267,251.266068 210.954742,274.589386 210.460815,297.951569 
	C197.757706,297.990448 185.517029,297.990448 172.999664,297.990448 
	C172.999664,322.001068 172.999664,345.421967 172.534485,368.903198 
	C156.518539,368.963470 140.967789,368.963470 124.920952,368.963470 
	C124.920952,387.394501 124.920952,405.134979 124.459320,422.918823 
	C82.998451,422.974792 41.999226,422.987396 1.000000,423.000000 
z"/>
<path fill="#6E6E86" opacity="1.000000" stroke="none" 
	d="
M124.920944,422.875458 
	C124.920952,405.134979 124.920952,387.394501 124.920952,368.963470 
	C140.967789,368.963470 156.518539,368.963470 172.993210,369.014038 
	C175.911102,369.137390 177.904999,369.271332 179.899063,369.273712 
	C205.550034,369.304108 231.201035,369.315735 256.897461,369.512878 
	C256.942871,369.693634 257.069946,370.044037 257.052429,370.509613 
	C257.023315,418.316803 257.011658,465.658386 257.000000,513.000000 
	C213.312439,513.000000 169.624878,513.000000 125.476135,512.531372 
	C124.983627,482.333679 124.952286,452.604584 124.920944,422.875458 
z"/>
<path fill="#515165" opacity="1.000000" stroke="none" 
	d="
M257.468658,513.000000 
	C257.011658,465.658386 257.023315,418.316803 257.510010,370.491730 
	C269.407715,369.770935 280.829376,369.449158 292.253235,369.321136 
	C302.706818,369.203979 313.163116,369.346344 323.617554,369.276520 
	C329.412201,369.237823 335.205475,368.998657 340.999390,368.849854 
	C356.730957,368.849854 372.462524,368.849854 389.030548,368.849854 
	C389.030548,386.942993 389.030548,404.453339 389.033386,422.900360 
	C389.024139,453.558014 389.012054,483.279022 389.000000,513.000000 
	C345.312439,513.000000 301.624878,513.000000 257.468658,513.000000 
z"/>
<path fill="#FCBE00" opacity="1.000000" stroke="none" 
	d="
M356.067291,132.099457 
	C351.694214,140.182037 347.437286,148.330093 342.925232,156.334335 
	C331.486359,176.626328 319.934143,196.854446 308.424530,217.106567 
	C306.671051,220.192032 304.902832,223.269150 302.529724,226.673798 
	C286.945282,227.000763 271.972595,227.004074 256.999939,226.538269 
	C257.015259,200.766510 257.030548,175.463852 257.073792,150.076050 
	C257.101715,149.990891 256.969513,149.869858 257.435120,149.924316 
	C262.494720,149.978775 267.088745,149.978775 271.696747,149.978775 
	C271.696747,118.365417 271.696747,87.356163 271.696747,56.009640 
	C266.604767,56.009640 261.809784,56.009640 256.957520,55.835625 
	C256.900238,55.661613 256.805969,55.307537 256.852600,54.821587 
	C256.932861,36.557091 256.966431,18.778545 257.000000,1.000000 
	C290.020905,1.000000 323.041779,1.000000 356.531342,1.000000 
	C357.004028,9.673352 357.008087,18.346704 356.807495,27.822338 
	C356.403748,30.087093 356.031494,31.549501 356.030945,33.012051 
	C356.018433,66.041176 356.046692,99.070320 356.067291,132.099457 
z"/>
<path fill="#FFD92E" opacity="1.000000" stroke="none" 
	d="
M257.045837,150.161209 
	C257.030548,175.463852 257.015259,200.766510 257.000610,226.534973 
	C257.001221,227.000778 257.006927,226.999207 256.537537,227.006149 
	C241.100037,227.015884 226.131912,227.018677 211.163773,227.021469 
	C205.768417,217.625839 200.339554,208.249252 194.984879,198.830490 
	C184.747986,180.823975 174.533829,162.804459 164.356476,144.764236 
	C162.136780,140.829651 160.111481,136.785385 157.967438,131.957138 
	C157.951294,98.661758 157.982712,66.200859 157.931564,33.740086 
	C157.928513,31.801735 157.264511,29.864428 156.908066,27.926636 
	C156.938522,19.263527 156.968979,10.600419 156.999725,1.468655 
	C190.020889,1.000000 223.041794,1.000000 256.531342,1.000000 
	C256.966431,18.778545 256.932861,36.557091 256.396820,54.833664 
	C246.117783,55.331688 236.341187,55.331688 226.387329,55.331688 
	C226.387329,65.854218 226.387329,75.726707 226.387329,86.065262 
	C231.641708,86.065262 236.566727,86.065262 242.068207,86.065262 
	C242.068207,107.556007 242.068207,128.585068 242.068207,150.161209 
	C247.455917,150.161209 252.250885,150.161209 257.045837,150.161209 
z"/>
<path fill="#32323D" opacity="1.000000" stroke="none" 
	d="
M389.468628,513.000000 
	C389.012054,483.279022 389.024139,453.558014 389.068298,423.360565 
	C430.087860,422.923065 471.075256,422.962036 512.531372,423.000519 
	C513.000000,452.938568 513.000000,482.877106 513.000000,513.000000 
	C471.979279,513.000000 430.958313,513.000000 389.468628,513.000000 
z"/>
<path fill="#515165" opacity="1.000000" stroke="none" 
	d="
M124.459312,422.918823 
	C124.952286,452.604584 124.983627,482.333679 125.007477,512.531372 
	C83.751328,513.000000 42.502655,513.000000 1.000000,513.000000 
	C1.000000,483.312927 1.000000,453.625122 1.000000,423.468658 
	C41.999226,422.987396 82.998451,422.974792 124.459312,422.918823 
z"/>
<path fill="#FF9E00" opacity="1.000000" stroke="none" 
	d="
M356.529236,132.057098 
	C356.046692,99.070320 356.018433,66.041176 356.030945,33.012051 
	C356.031494,31.549501 356.403748,30.087093 356.849976,28.285976 
	C379.862885,27.947332 402.628662,27.947332 425.768127,27.947332 
	C425.855225,29.876549 425.989105,31.478640 425.990509,33.080845 
	C426.005676,50.382946 426.140472,67.686508 425.961884,84.986778 
	C425.769897,103.588051 411.712006,121.542282 394.971313,128.174820 
	C382.519165,133.108246 369.733429,131.638046 356.529236,132.057098 
z"/>
<path fill="#FCBE00" opacity="1.000000" stroke="none" 
	d="
M340.999298,368.393372 
	C335.205475,368.998657 329.412201,369.237823 323.617554,369.276520 
	C313.163116,369.346344 302.706818,369.203979 292.253235,369.321136 
	C280.829376,369.449158 269.407715,369.770935 257.527527,370.026154 
	C257.069946,370.044037 256.942871,369.693634 256.934326,369.022888 
	C256.937988,344.911102 256.950195,321.470032 257.433411,298.021027 
	C272.970245,297.988037 288.036102,297.963013 303.101990,297.937927 
	C315.542786,297.937927 327.983612,297.937927 340.999207,297.937927 
	C340.999207,321.513916 340.999207,344.725372 340.999298,368.393372 
z"/>
<path fill="#FF9E00" opacity="1.000000" stroke="none" 
	d="
M303.057709,297.475647 
	C288.036102,297.963013 272.970245,297.988037 257.449158,298.017853 
	C256.993988,298.022614 256.975616,298.037659 256.982544,297.565460 
	C256.995270,273.728577 257.001099,250.363892 257.006927,226.999207 
	C257.006927,226.999207 257.001221,227.000778 257.000549,227.004089 
	C271.972595,227.004074 286.945282,227.000763 302.376068,226.995438 
	C302.893921,250.333405 302.953674,273.673401 303.057709,297.475647 
z"/>
<path fill="#FCBE00" opacity="1.000000" stroke="none" 
	d="
M156.447678,27.958553 
	C157.264511,29.864428 157.928513,31.801735 157.931564,33.740086 
	C157.982712,66.200859 157.951294,98.661758 157.915070,131.592010 
	C148.483688,131.708466 138.973602,132.105927 129.688660,130.845306 
	C110.757019,128.274933 98.035889,117.039062 91.197235,99.556786 
	C89.007195,93.958176 88.273376,87.520340 88.138451,81.438408 
	C87.747856,63.831284 88.000221,46.209888 88.000221,27.990469 
	C110.852013,27.990469 133.419647,27.990469 156.447678,27.958553 
z"/>
<path fill="#FFD92E" opacity="1.000000" stroke="none" 
	d="
M256.978210,298.025787 
	C256.950195,321.470032 256.937988,344.911102 256.888885,368.842163 
	C231.201035,369.315735 205.550034,369.304108 179.899063,369.273712 
	C177.904999,369.271332 175.911102,369.137390 173.458405,368.953766 
	C172.999664,345.421967 172.999664,322.001068 172.999664,297.990448 
	C185.517029,297.990448 197.757706,297.990448 210.931671,297.983154 
	C226.901840,297.996460 241.938736,298.017059 256.975616,298.037659 
	C256.975616,298.037659 256.993988,298.022614 256.978210,298.025787 
z"/>
<path fill="#FCBE00" opacity="1.000000" stroke="none" 
	d="
M256.982544,297.565460 
	C241.938736,298.017059 226.901840,297.996460 211.394089,297.944275 
	C210.954742,274.589386 210.986267,251.266068 211.090790,227.482117 
	C226.131912,227.018677 241.100037,227.015884 256.537537,227.006149 
	C257.001099,250.363892 256.995270,273.728577 256.982544,297.565460 
z"/>
<path fill="#E7F2FF" opacity="1.000000" stroke="none" 
	d="
M257.073792,150.076050 
	C252.250885,150.161209 247.455917,150.161209 242.068207,150.161209 
	C242.068207,128.585068 242.068207,107.556007 242.068207,86.065262 
	C236.566727,86.065262 231.641708,86.065262 226.387329,86.065262 
	C226.387329,75.726707 226.387329,65.854218 226.387329,55.331688 
	C236.341187,55.331688 246.117783,55.331688 256.350159,55.319611 
	C256.805969,55.307537 256.900238,55.661613 256.952850,56.303291 
	C256.993469,87.919937 256.981476,118.894897 256.969482,149.869858 
	C256.969513,149.869858 257.101715,149.990891 257.073792,150.076050 
z"/>
<path fill="#D0E8FF" opacity="1.000000" stroke="none" 
	d="
M257.435089,149.924316 
	C256.981476,118.894897 256.993469,87.919937 257.010132,56.477306 
	C261.809784,56.009640 266.604767,56.009640 271.696747,56.009640 
	C271.696747,87.356163 271.696747,118.365417 271.696747,149.978775 
	C267.088745,149.978775 262.494720,149.978775 257.435089,149.924316 
z"/>
</svg>